<svg xmlns="http://www.w3.org/2000/svg" viewBox="0 0 512 512">
  <rect width="512" height="512" fill="#632ca6" transform="rotate(-15 256 256)"/>
  <g fill="#fff">
    <path d="M120 180c-10-15-5-35 10-45 15-10 35-5 45 10l40 60c10 15 5 35-10 45-15 10-35 5-45-10z"/>
    <path d="M300 120c15-10 35-5 45 10 10 15 5 35-10 45l-60 40c-15 10-35 5-45-10-10-15-5-35 10-45z"/>
    <ellipse cx="180" cy="230" rx="25" ry="30"/>
    <ellipse cx="300" cy="230" rx="25" ry="30"/>
    <path d="M150 280c0-10 8-18 18-18h176c10 0 18 8 18 18 0 50-40 90-90 90h-32c-50 0-90-40-90-90z"/>
    <ellipse cx="140" cy="350" rx="50" ry="80"/>
    <path d="M320 320l80 60c8 6 10 17 4 25l-20 27c-6 8-17 10-25 4l-80-60c-8-6-10-17-4-25l20-27c6-8 17-10 25-4z"/>
    <rect x="340" y="280" width="100" height="80" rx="10" transform="rotate(37 390 320)"/>
  </g>
</svg>

